<svg id="Calque_1" data-name="Calque 1" xmlns="http://www.w3.org/2000/svg" xmlns:xlink="http://www.w3.org/1999/xlink" viewBox="0 0 334.06 333.54"><defs><style>.cls-1{fill:none;}.cls-2{clip-path:url(#clip-path);}.cls-3{fill:#fff;}</style><clipPath id="clip-path"><rect class="cls-1" width="334.06" height="333.54"/></clipPath></defs><title>Accéder au site</title><g class="cls-2"><path class="cls-3" d="M190.62,42a24.56,24.56,0,0,0-14.77-2.38s1,5.1,7.38,5.35,7.39-3,7.39-3"/><path class="cls-3" d="M180.82,112.95c3.33-1.54,22.88-9.92,27.62-16.27L230.5,76.4s-18-22.88-24.92-23.51c0,0,13.11,32.4-14.57,50s-52.11-1.3-52.11-1.3-22.78-17.51-22-39l0-6-2.47,1s-3.1,4.34-1.15,7.35,3.88,8.17-3.72,8.3-3,4.91-3,4.91S110.52,89,130,99.51c0,0,15.19,11.81,33.45,14.1s4.6,3.55,4.6,3.55-25.49-4.08-34.44-10.49c-8.35-6-17-10.49-26.6-20.92a154.12,154.12,0,0,0,11.5,13.41c21,21.69,39.14,26.36,50.69,26.46h.4c17.32,0,34.08-9.55,50-28.43a69,69,0,0,1-9.79,6.08c-14.61,7.23-24.51,11-30.57,11.84,0,0-1.8-.62,1.53-2.16"/><path class="cls-3" d="M217.65,39.81C203.23,21.5,187.8,12,171.55,11.57c-21.56-.6-41,15.06-53.45,28.31a176.94,176.94,0,0,0-14.79,18.06c12.89-9.72,37.74-27.13,53-29.29,20.53-2.91,36-7.81,61.37,11.16"/><path class="cls-3" d="M324,204.2c-.21,9-1.75,26.07-9.61,40.38-9,16.43-24,25-44.6,25.49-15.74.38-28.77-5.55-37.35-16.81a54.23,54.23,0,0,0,8.37-3.75c6.61,7.68,16,11.69,27.55,11.69h1.22c13.64-.32,24.42-4.85,32.06-13.44,8.29-9.33,12.8-23.58,13.43-42.35l.1-83c0-11.51-1.93-21.12-5.74-28.57C303.48,82.28,293,76.15,279.1,76.15s-24.77,6.35-31.53,18.38c-6.47,11.51-7,24.28-7,27.92a45.41,45.41,0,0,0,1.18,10.16A52.17,52.17,0,0,0,232.2,129a52.55,52.55,0,0,1-.43-6.55c0-5.36.79-19.24,8.11-32.25,8.3-14.75,22.23-22.87,39.22-22.87,17.18,0,30.73,8,38.17,22.54,4.45,8.7,6.71,19.67,6.71,32.58ZM234.8,279.35a11.35,11.35,0,0,1-10.76,6c-3.62-.26-6.67-.86-8.68-3.58-3.43-4.65-6.23-12.82-5.72-25.73h7.09a45.36,45.36,0,0,0,5.08-.3,52.17,52.17,0,0,0,15.56,15.84,30.43,30.43,0,0,1-2.58,7.8M209.74,209l-.09-16.88c.07-12.64,1.81-17.43,7.19-17.43,7.48,0,10.74,9.79,10.67,16.32-.15,13.05-5.72,18.32-14.24,18-.93,0-3.53,0-3.53,0m1.1,9.29h3.55c14.21,0,22.11-12.88,22.11-26.17,0-9.52-1.2-12.71-4.56-18.68s-10.49-8.77-15.11-8.77c-7,0-11.55,3.59-13.53,7.47-3,5.94-3.67,14.15-3.67,20V255.1c-1.5,38.18,16.61,39.68,25.09,40.41a7.8,7.8,0,0,0,1.3.08,20.33,20.33,0,0,0,15.15-7.13c3.09-4,4.41-8.74,5.41-12.19a54.83,54.83,0,0,0,8.5,2.55,55.88,55.88,0,0,1-6.44,14.44c-5.4,8.42-13.63,12.86-24.83,11.9-10.84-.92-18.89-5.26-23.95-12.35-5.94-8.34-9.73-21-9.06-38.07V192.15c0-9.91,1.56-18,4.64-24,4.22-8.26,11.22-12.27,21.39-12.27s17.85,4.46,22.8,13.27c4.19,7.46,5.69,16.77,5.69,23A38.25,38.25,0,0,1,235.77,217c-5.59,6.37-12.71,10.18-19,10.18h-5.9Zm57.45,23.93h.81c8.36-.2,25.64-2.62,27-38.82l.16-81c0-5.84-.64-14.05-3.67-20-2-3.88-6.49-7.47-13.53-7.47-4.62,0-11.7,2.71-15.11,8.77s-4.56,9.16-4.56,18.68c0,13.28,7.91,26.17,22.11,26.17h3.55v8.83h-5.9c-6.32,0-13.43-3.8-19-10.18a38.25,38.25,0,0,1-9.56-24.82c0-6.24,1.49-15.55,5.69-23,5-8.8,12.63-13.27,22.8-13.27s17.17,4,21.39,12.27c3.08,6,4.64,14.1,4.64,24v81.16c-.37,17.1-4.16,29.7-11,37.45-5.78,6.51-13.88,9.8-24.76,10.06-8.64.21-15.27-2.2-20.09-7.29a64.06,64.06,0,0,0,6.49-6c2.4,2.51,6.1,4.43,12.57,4.43m17.9-102.93s-2.6,0-3.53,0c-8.52.29-14.09-5-14.24-18-.07-6.54,3.19-16.32,10.67-16.32,5.38,0,7.12,4.79,7.19,17.44Zm-16.55,26.44a29,29,0,0,0,9.55,1.69h5.9v8.82h-5.9a36.09,36.09,0,0,1-6.79-.66,78.19,78.19,0,0,0-2.76-9.85m4.18,33V186a45.24,45.24,0,0,0,5.37.32h7.09v16.9c-.28,12.92-2.9,21.1-7.07,25.11-3,2.92-6.72,3.77-10.36,3.85-4.74.12-5.81-.94-6.66-2.38a67.94,67.94,0,0,0,11.62-31.06M264.6,303.5c-9.16,14.27-24.16,21.27-42.24,19.75C204,321.71,186.88,311.87,179,295.66c-5.44-11.15-6.67-26-7-35.24V192.15c0-12.92,2.26-23.88,6.71-32.58C186.1,145,199.66,137,216.84,137c17,0,30.92,8.12,39.22,22.87,7.32,13,8.11,26.89,8.11,32.25a57.47,57.47,0,0,1-14.66,37.64c-9.17,10.29-21.12,16.2-32.77,16.2h-5.9v-8.83h5.9c9.3,0,19-5,26.56-13.59a48.4,48.4,0,0,0,12.05-31.42c0-3.64-.5-16.41-7-27.92-6.76-12-17.67-18.37-31.53-18.37s-24.38,6.13-30.31,17.73c-3.81,7.45-5.74,17.06-5.74,28.57v62.2c-.77,19.55,3.64,34.11,11.14,44.67,6.66,9.37,17.59,14.21,31.18,15.37q2.12.18,4.14.18c12.9,0,23.17-5.44,29.87-15.88a66.7,66.7,0,0,0,8.06-18.6c1,0,2.08.08,3.14.08l1.69,0q2.22-.05,4.37-.22a76.37,76.37,0,0,1-9.79,23.56m-102.82-41c-.34,9.28-1.54,21.56-6.72,32.55-8,16.95-22.46,26.43-43,28.17C94,324.79,79,317.77,69.86,303.5A76.34,76.34,0,0,1,60.08,280c1.25.09,2.51.15,3.79.18l1.69,0c1.25,0,2.48,0,3.7-.1a66.73,66.73,0,0,0,8.07,18.63c6.7,10.44,17,15.88,29.87,15.88,1.35,0,5.93-.38,7.33-.53,14.65-1.55,22.82-8,28-15,7.61-10.33,11.2-25.47,10.43-45V192.15c0-11.51-1.93-21.12-5.74-28.57-5.93-11.6-16.41-17.73-30.31-17.73s-24.77,6.35-31.53,18.38c-6.47,11.51-7,24.28-7,27.92a48.4,48.4,0,0,0,12.05,31.42C98,232.21,107.7,237.16,117,237.16h5.9V246H117c-11.65,0-23.6-5.9-32.77-16.2a57.47,57.47,0,0,1-14.66-37.64c0-5.36.79-19.24,8.11-32.25C86,145.16,99.91,137,116.9,137c17.18,0,30.73,8,38.17,22.54,4.45,8.7,6.71,19.67,6.71,32.58ZM124,256c.42,12.53-1,21.56-4.87,25.73-2.84,3.09-4.16,3.79-7.75,4.31s-8.1-.85-10.37-4.38a28.58,28.58,0,0,1-4-10.44A52.26,52.26,0,0,0,112,255.72,45.1,45.1,0,0,0,117,256Zm.13-63.85L124,209s-2.6,0-3.53,0c-8.52.29-14.1-5-14.24-18-.07-6.54,3.19-16.32,10.67-16.32,5.38,0,7.12,4.79,7.19,17.43m10,62.95V192.15c0-5.84-.64-14-3.67-20-2-3.88-6.49-7.47-13.53-7.47-4.62,0-11.7,2.7-15.11,8.77s-4.56,9.16-4.56,18.68c0,13.28,7.91,26.17,22.11,26.17h3.55v8.83H117c-6.32,0-13.43-3.8-19-10.18a38.25,38.25,0,0,1-9.56-24.82c0-6.23,1.5-15.55,5.69-23,5-8.8,12.63-13.27,22.8-13.27s17.17,4,21.39,12.27c3.08,6,4.64,14.1,4.64,24v71.16c-.53,12.7-3.31,22.66-8.34,29.49-6.18,8.39-10.26,11.35-24.43,12.39-11.2.82-18.94-3.51-24.35-11.94a56,56,0,0,1-6.46-14.57,54.55,54.55,0,0,0,8.47-2.63,34.58,34.58,0,0,0,4.4,10.64c3.81,6.09,12.42,8.95,17.18,8.95.83,0,3.54.06,4.46,0,8.48-.72,21.42-9.48,20.24-40.52M54.8,157.44H48.9V143.6H49v5h3.55c14.21,0,22.11-12.88,22.11-26.17,0-9.52-1.2-12.71-4.56-18.68S59.62,95,55,95c-7,0-11.55,3.59-13.53,7.47-3,5.94-3.67,14.14-3.67,20l0,81,0,2c1.4,36.2,18.61,36.64,27,36.84h.81c6.4,0,10.09-1.89,12.5-4.36a64.11,64.11,0,0,0,6.51,6c-4.81,5.05-11.41,7.44-20,7.23-10.88-.26-19-3.55-24.76-10.06-6.87-7.73-10.55-20.27-10.94-37.29V122.45c0-9.91,1.56-18,4.64-24,4.22-8.26,11.22-12.27,21.39-12.27s17.85,4.46,22.8,13.27c4.2,7.46,5.69,16.78,5.69,23a38.25,38.25,0,0,1-9.56,24.82c-5.59,6.37-12.71,10.18-19,10.18m6.53,18.22a36.05,36.05,0,0,1-6.53.62H48.9v-8.82h5.9a28.92,28.92,0,0,0,9.26-1.59,78.18,78.18,0,0,0-2.73,9.79M47.81,122.44C47.88,109.8,49.62,105,55,105c7.48,0,10.74,9.79,10.67,16.32-.15,13.06-5.72,18.32-14.24,18-.93,0-3.53,0-3.53,0Zm7,63.86a45.2,45.2,0,0,0,5.12-.3c.06,7.41,0,5,0,12.71s5.25,21.85,11.7,31.18c-.84,1.38-2,2.37-6.6,2.27-3.63-.09-7.38-.18-10.41-3.09-4.16-4-6.51-13-6.79-25.88V186.3ZM19.51,244.58c-7.52-13.7-9.18-29.91-9.5-39.17v-83c0-12.92,2.26-23.88,6.71-32.58,7.43-14.53,21-22.54,38.17-22.54,17,0,30.92,8.12,39.22,22.87,7.32,13,8.11,26.89,8.11,32.25a52.53,52.53,0,0,1-.42,6.48,52.17,52.17,0,0,0-9.55,3.55,45.4,45.4,0,0,0,1.15-10c0-3.64-.5-16.42-7-27.92-6.76-12-17.67-18.37-31.53-18.37S30.52,82.28,24.58,93.88c-3.81,7.45-5.74,17.06-5.74,28.57v83c.43,19.56,4.9,32.76,13.42,42.35,7.64,8.59,18.42,13.11,32.06,13.44h1.22c11.53,0,20.9-4,27.5-11.64a54.08,54.08,0,0,0,8.4,3.73c-8.58,11.23-21.59,17.14-37.32,16.77-20.57-.49-35.57-9.07-44.6-25.49M90.23,66.21l2-.73c3.95-6.5,7.72-13.66,22.14-29,18.49-19.65,37.83-30,56-30l1.33,0c24.53.68,47,19.66,66.87,56.43A45.27,45.27,0,0,1,241.23,67s-.71.57,2,1.32-2.6,9.95-2.6,9.95-1.36,1.49-3.64,3.79c-20.79,32.27-43.43,48.63-67.38,48.63h-.46c-18-.16-36.77-9.87-54.35-28.09a157.34,157.34,0,0,1-21.21-27.5c-1.69-1.05-4.22-3.56-3.36-8.88M334,204.24V122.45c0-14.52-2.63-27-7.81-37.15-9.23-18.05-26-28-47.09-28a58.6,58.6,0,0,0-20.86,3.44c-2.6,1.15-8.67,3.46-8.67,3.46a4.4,4.4,0,0,1-.72-2.06S217.65,0,169.44,0c-39.8,0-69,40.39-81.1,57.94-.95,1.38-4.51,7.38-4.51,7.38S79.16,63,75.94,61.4c-13-4.09-18.12-4-18.13-4-1,0-1.93-.07-2.91-.07-21.13,0-37.85,9.94-47.09,28C2.63,95.43,0,107.93,0,122.45v81.79c.26,12.08,2.18,29.73,10.68,45.2a56.72,56.72,0,0,0,38.8,29,87.91,87.91,0,0,0,11.9,30.47c10.26,16,26.35,24.59,45.72,24.6h.09q2.84,0,5.76-.25c24-2,41.71-13.77,51.22-33.91a74.68,74.68,0,0,0,3.06-7.59,74.33,74.33,0,0,0,3.06,7.59c9.51,20.14,27.22,31.87,51.22,33.91q2.93.25,5.76.25h.09c19.37,0,35.46-8.61,45.72-24.6A87.91,87.91,0,0,0,285,278.34a56.67,56.67,0,0,0,38.21-28.91c8.49-15.46,10.59-33.11,10.86-45.18H334Z"/></g></svg>